<mxfile host="www.draw.io" modified="2023-10-02T18:00:25.677Z" agent="Mozilla/5.0 (X11; Ubuntu; Linux x86_64; rv:109.0) Gecko/20100101 Firefox/119.0" etag="U6grQRVwo1_QCLrGPfG8" version="22.0.1" type="device">
  <diagram name="Page-1" id="74e2e168-ea6b-b213-b513-2b3c1d86103e">
    <mxGraphModel dx="1129" dy="739" grid="1" gridSize="10" guides="1" tooltips="1" connect="1" arrows="1" fold="1" page="1" pageScale="1" pageWidth="1100" pageHeight="850" background="none" math="0" shadow="0">
      <root>
        <mxCell id="0" />
        <mxCell id="1" parent="0" />
        <mxCell id="77e6c97f196da883-1" value="&lt;font style=&quot;font-size: 12px;&quot; face=&quot;Helvetica&quot;&gt;&amp;nbsp;HTTP Request/Response lifecycle&lt;/font&gt;" style="swimlane;html=1;childLayout=stackLayout;startSize=30;rounded=0;shadow=0;labelBackgroundColor=none;strokeWidth=1;fontFamily=Verdana;fontSize=8;align=center;strokeColor=none;fillColor=none;gradientColor=none;swimlaneFillColor=none;" parent="1" vertex="1">
          <mxGeometry x="70" y="20" width="800" height="360" as="geometry" />
        </mxCell>
        <mxCell id="77e6c97f196da883-2" value="&lt;font style=&quot;font-size: 11px;&quot;&gt;Client App&lt;/font&gt;" style="swimlane;html=1;startSize=30;fillColor=none;fontColor=#333333;strokeColor=none;" parent="77e6c97f196da883-1" vertex="1">
          <mxGeometry y="30" width="160" height="330" as="geometry" />
        </mxCell>
        <mxCell id="77e6c97f196da883-8" value="GET &lt;font style=&quot;font-size: 12px;&quot;&gt;/api/foo/bar&lt;/font&gt;" style="rounded=1;whiteSpace=wrap;html=1;shadow=1;labelBackgroundColor=none;strokeWidth=1;fontFamily=Helvetica;fontSize=10;align=center;" parent="77e6c97f196da883-2" vertex="1">
          <mxGeometry x="30" y="50" width="100" height="60" as="geometry" />
        </mxCell>
        <mxCell id="4fWDR9kiSGz-tgIr8KYa-35" value="Process HTTP response." style="rounded=1;whiteSpace=wrap;html=1;shadow=1;labelBackgroundColor=none;strokeWidth=1;fontFamily=Helvetica;fontSize=10;align=center;" parent="77e6c97f196da883-2" vertex="1">
          <mxGeometry x="30" y="194" width="100" height="60" as="geometry" />
        </mxCell>
        <mxCell id="4fWDR9kiSGz-tgIr8KYa-65" value="" style="outlineConnect=0;dashed=0;verticalLabelPosition=bottom;verticalAlign=top;align=center;html=1;shape=mxgraph.aws3.management_console;fillColor=#D2D3D3;gradientColor=none;" parent="77e6c97f196da883-2" vertex="1">
          <mxGeometry x="55.75" y="130" width="48.5" height="48.5" as="geometry" />
        </mxCell>
        <mxCell id="77e6c97f196da883-3" value="&lt;font style=&quot;font-size: 11px;&quot;&gt;CloudFront&lt;/font&gt;" style="swimlane;html=1;startSize=30;fillColor=none;fontColor=#333333;strokeColor=none;" parent="77e6c97f196da883-1" vertex="1">
          <mxGeometry x="160" y="30" width="160" height="330" as="geometry" />
        </mxCell>
        <mxCell id="77e6c97f196da883-11" value="&lt;div align=&quot;center&quot;&gt;Handle request. Return cached response, if exists.&lt;/div&gt;" style="rounded=1;whiteSpace=wrap;html=1;shadow=1;labelBackgroundColor=none;strokeWidth=1;fontFamily=Helvetica;fontSize=10;align=center;fillColor=#fff2cc;strokeColor=#d6b656;" parent="77e6c97f196da883-3" vertex="1">
          <mxGeometry x="30" y="50" width="100" height="60" as="geometry" />
        </mxCell>
        <mxCell id="4fWDR9kiSGz-tgIr8KYa-34" value="Cache response, if &lt;font face=&quot;Verdana&quot;&gt;Cache-Control&lt;/font&gt; is enforced." style="rounded=1;whiteSpace=wrap;html=1;shadow=1;labelBackgroundColor=none;strokeWidth=1;fontFamily=Helvetica;fontSize=10;align=center;fillColor=#fff2cc;strokeColor=#d6b656;" parent="77e6c97f196da883-3" vertex="1">
          <mxGeometry x="30" y="194" width="100" height="60" as="geometry" />
        </mxCell>
        <mxCell id="4fWDR9kiSGz-tgIr8KYa-67" value="" style="outlineConnect=0;dashed=0;verticalLabelPosition=bottom;verticalAlign=top;align=center;html=1;shape=mxgraph.aws3.cloudfront;fillColor=#F58536;gradientColor=none;" parent="77e6c97f196da883-3" vertex="1">
          <mxGeometry x="57.79" y="125" width="44.05" height="54" as="geometry" />
        </mxCell>
        <mxCell id="77e6c97f196da883-4" value="&lt;font style=&quot;font-size: 11px;&quot;&gt;Lambda @Edge&lt;/font&gt;" style="swimlane;html=1;startSize=30;fillColor=none;fontColor=#333333;strokeColor=none;" parent="77e6c97f196da883-1" vertex="1">
          <mxGeometry x="320" y="30" width="160" height="330" as="geometry" />
        </mxCell>
        <mxCell id="77e6c97f196da883-12" value="Forward &lt;a href=&quot;https://docs.aws.amazon.com/AmazonCloudFront/latest/DeveloperGuide/lambda-event-structure.html#example-origin-request&quot;&gt;&lt;i&gt;origin request&lt;/i&gt;&lt;/a&gt; to &lt;b&gt;Lambda&lt;/b&gt; function handler." style="rounded=1;whiteSpace=wrap;html=1;shadow=1;labelBackgroundColor=none;strokeWidth=1;fontFamily=Helvetica;fontSize=10;align=center;fillColor=#ffe6cc;strokeColor=#d79b00;" parent="77e6c97f196da883-4" vertex="1">
          <mxGeometry x="30" y="50" width="100" height="60" as="geometry" />
        </mxCell>
        <mxCell id="4fWDR9kiSGz-tgIr8KYa-29" value="&lt;font style=&quot;font-size: 10px;&quot;&gt;Return &lt;b&gt;Lambda &lt;/b&gt;function handler &lt;i&gt;response&lt;/i&gt;.&lt;/font&gt;" style="rounded=1;whiteSpace=wrap;html=1;shadow=1;labelBackgroundColor=none;strokeWidth=1;fontFamily=Helvetica;fontSize=10;align=center;fillColor=#ffe6cc;strokeColor=#d79b00;" parent="77e6c97f196da883-4" vertex="1">
          <mxGeometry x="30" y="194" width="100" height="60" as="geometry" />
        </mxCell>
        <mxCell id="4fWDR9kiSGz-tgIr8KYa-66" value="" style="outlineConnect=0;dashed=0;verticalLabelPosition=bottom;verticalAlign=top;align=center;html=1;shape=mxgraph.aws3.lambda;fillColor=#F58534;gradientColor=none;" parent="77e6c97f196da883-4" vertex="1">
          <mxGeometry x="56.75" y="123" width="46.5" height="56.53" as="geometry" />
        </mxCell>
        <mxCell id="77e6c97f196da883-5" value="&lt;font style=&quot;font-size: 11px;&quot; face=&quot;Helvetica&quot;&gt;LÂ³&lt;/font&gt;&lt;font style=&quot;font-size: 11px;&quot;&gt; App Router&lt;font style=&quot;font-size: 11px;&quot;&gt;&lt;br&gt;&lt;/font&gt;&lt;/font&gt;" style="swimlane;html=1;startSize=30;fillColor=none;fontColor=#333333;strokeColor=none;" parent="77e6c97f196da883-1" vertex="1">
          <mxGeometry x="480" y="30" width="160" height="330" as="geometry" />
        </mxCell>
        <mxCell id="4fWDR9kiSGz-tgIr8KYa-51" value="" style="edgeStyle=orthogonalEdgeStyle;rounded=0;orthogonalLoop=1;jettySize=auto;html=1;" parent="77e6c97f196da883-5" source="77e6c97f196da883-9" target="4fWDR9kiSGz-tgIr8KYa-24" edge="1">
          <mxGeometry relative="1" as="geometry" />
        </mxCell>
        <mxCell id="77e6c97f196da883-9" value="Parse the &lt;b&gt;Lambda&lt;/b&gt; generated &lt;i&gt;request&lt;/i&gt; (URI/parameters)" style="rounded=1;whiteSpace=wrap;html=1;shadow=1;labelBackgroundColor=none;strokeWidth=1;fontFamily=Helvetica;fontSize=10;align=center;fillColor=#d5e8d4;strokeColor=#82b366;" parent="77e6c97f196da883-5" vertex="1">
          <mxGeometry x="25" y="50" width="110" height="60" as="geometry" />
        </mxCell>
        <mxCell id="4fWDR9kiSGz-tgIr8KYa-52" value="" style="edgeStyle=orthogonalEdgeStyle;rounded=0;orthogonalLoop=1;jettySize=auto;html=1;" parent="77e6c97f196da883-5" source="4fWDR9kiSGz-tgIr8KYa-24" target="4fWDR9kiSGz-tgIr8KYa-25" edge="1">
          <mxGeometry relative="1" as="geometry" />
        </mxCell>
        <mxCell id="4fWDR9kiSGz-tgIr8KYa-24" value="Execute &lt;a href=&quot;https://github.com/lambda-lambda-lambda/middleware/tree/master/plugins&quot;&gt;middleware&lt;/a&gt; functions (e.g. custom plugins)" style="rounded=1;whiteSpace=wrap;html=1;shadow=1;labelBackgroundColor=none;strokeWidth=1;fontFamily=Helvetica;fontSize=10;align=center;fillColor=#d5e8d4;strokeColor=#82b366;" parent="77e6c97f196da883-5" vertex="1">
          <mxGeometry x="25" y="145" width="110" height="60" as="geometry" />
        </mxCell>
        <mxCell id="4fWDR9kiSGz-tgIr8KYa-25" value="&lt;font style=&quot;font-size: 10px;&quot;&gt;Execute URI mapped &lt;a href=&quot;https://github.com/lambda-lambda-lambda/manual/blob/master/ComplexRouting.md&quot;&gt;route/resource &lt;/a&gt;handler.&lt;br&gt;&lt;/font&gt;" style="rounded=1;whiteSpace=wrap;html=1;shadow=1;labelBackgroundColor=none;strokeWidth=1;fontFamily=Helvetica;fontSize=10;align=center;fillColor=#d5e8d4;strokeColor=#82b366;" parent="77e6c97f196da883-5" vertex="1">
          <mxGeometry x="27.5" y="240" width="105" height="60" as="geometry" />
        </mxCell>
        <mxCell id="4fWDR9kiSGz-tgIr8KYa-22" value="&lt;font style=&quot;font-size: 11px;&quot;&gt;Data Store&lt;/font&gt;" style="swimlane;html=1;startSize=30;fillColor=none;fontColor=#333333;strokeColor=none;" parent="77e6c97f196da883-1" vertex="1">
          <mxGeometry x="640" y="30" width="160" height="330" as="geometry" />
        </mxCell>
        <mxCell id="4fWDR9kiSGz-tgIr8KYa-38" value="&lt;a href=&quot;https://docs.aws.amazon.com/cloudfront/latest/APIReference/API_Origin.html&quot;&gt;&lt;font style=&quot;font-size: 12px;&quot;&gt;origin&lt;/font&gt;&lt;/a&gt;" style="rounded=1;whiteSpace=wrap;html=1;shadow=0;labelBackgroundColor=none;strokeWidth=1;fontFamily=Helvetica;fontSize=10;align=center;fillColor=#f5f5f5;fontColor=default;strokeColor=none;dashed=1;" parent="4fWDR9kiSGz-tgIr8KYa-22" vertex="1">
          <mxGeometry x="30" y="170" width="100" height="110" as="geometry" />
        </mxCell>
        <mxCell id="4fWDR9kiSGz-tgIr8KYa-62" value="" style="outlineConnect=0;dashed=0;verticalLabelPosition=bottom;verticalAlign=top;align=center;html=1;shape=mxgraph.aws3.cloud_2;fillColor=#F58534;gradientColor=none;" parent="4fWDR9kiSGz-tgIr8KYa-22" vertex="1">
          <mxGeometry x="36.25" y="50" width="87.5" height="87.5" as="geometry" />
        </mxCell>
        <mxCell id="4fWDR9kiSGz-tgIr8KYa-3" value="" style="edgeStyle=orthogonalEdgeStyle;rounded=0;orthogonalLoop=1;jettySize=auto;html=1;" parent="77e6c97f196da883-1" source="77e6c97f196da883-11" target="77e6c97f196da883-12" edge="1">
          <mxGeometry relative="1" as="geometry" />
        </mxCell>
        <mxCell id="4fWDR9kiSGz-tgIr8KYa-4" value="" style="edgeStyle=orthogonalEdgeStyle;rounded=0;orthogonalLoop=1;jettySize=auto;html=1;" parent="77e6c97f196da883-1" source="77e6c97f196da883-12" target="77e6c97f196da883-9" edge="1">
          <mxGeometry relative="1" as="geometry" />
        </mxCell>
        <mxCell id="4fWDR9kiSGz-tgIr8KYa-54" value="" style="edgeStyle=orthogonalEdgeStyle;rounded=0;orthogonalLoop=1;jettySize=auto;html=1;curved=1;" parent="77e6c97f196da883-1" source="4fWDR9kiSGz-tgIr8KYa-24" target="4fWDR9kiSGz-tgIr8KYa-38" edge="1">
          <mxGeometry relative="1" as="geometry" />
        </mxCell>
        <mxCell id="4fWDR9kiSGz-tgIr8KYa-55" value="" style="edgeStyle=orthogonalEdgeStyle;rounded=0;orthogonalLoop=1;jettySize=auto;html=1;curved=1;" parent="77e6c97f196da883-1" source="4fWDR9kiSGz-tgIr8KYa-25" target="4fWDR9kiSGz-tgIr8KYa-38" edge="1">
          <mxGeometry relative="1" as="geometry" />
        </mxCell>
        <mxCell id="4fWDR9kiSGz-tgIr8KYa-56" value="" style="edgeStyle=orthogonalEdgeStyle;rounded=0;orthogonalLoop=1;jettySize=auto;html=1;curved=1;" parent="77e6c97f196da883-1" source="4fWDR9kiSGz-tgIr8KYa-24" target="4fWDR9kiSGz-tgIr8KYa-29" edge="1">
          <mxGeometry relative="1" as="geometry" />
        </mxCell>
        <mxCell id="4fWDR9kiSGz-tgIr8KYa-57" value="" style="edgeStyle=orthogonalEdgeStyle;rounded=0;orthogonalLoop=1;jettySize=auto;html=1;curved=1;" parent="77e6c97f196da883-1" source="4fWDR9kiSGz-tgIr8KYa-25" target="4fWDR9kiSGz-tgIr8KYa-29" edge="1">
          <mxGeometry relative="1" as="geometry" />
        </mxCell>
        <mxCell id="4fWDR9kiSGz-tgIr8KYa-58" value="" style="edgeStyle=orthogonalEdgeStyle;rounded=0;orthogonalLoop=1;jettySize=auto;html=1;" parent="77e6c97f196da883-1" source="4fWDR9kiSGz-tgIr8KYa-29" target="4fWDR9kiSGz-tgIr8KYa-34" edge="1">
          <mxGeometry relative="1" as="geometry" />
        </mxCell>
        <mxCell id="4fWDR9kiSGz-tgIr8KYa-59" value="" style="edgeStyle=orthogonalEdgeStyle;rounded=0;orthogonalLoop=1;jettySize=auto;html=1;" parent="77e6c97f196da883-1" source="4fWDR9kiSGz-tgIr8KYa-34" target="4fWDR9kiSGz-tgIr8KYa-35" edge="1">
          <mxGeometry relative="1" as="geometry" />
        </mxCell>
        <mxCell id="4fWDR9kiSGz-tgIr8KYa-60" value="" style="edgeStyle=orthogonalEdgeStyle;rounded=0;orthogonalLoop=1;jettySize=auto;html=1;" parent="77e6c97f196da883-1" source="77e6c97f196da883-8" target="77e6c97f196da883-11" edge="1">
          <mxGeometry relative="1" as="geometry" />
        </mxCell>
      </root>
    </mxGraphModel>
  </diagram>
</mxfile>
